<?xml version="1.0" encoding="utf-8" standalone="no"?>
<!DOCTYPE svg PUBLIC "-//W3C//DTD SVG 1.1//EN"
  "http://www.w3.org/Graphics/SVG/1.1/DTD/svg11.dtd">
<svg xmlns:xlink="http://www.w3.org/1999/xlink" width="864pt" height="720pt" viewBox="0 0 864 720" xmlns="http://www.w3.org/2000/svg" version="1.1">
 <metadata>
  <rdf:RDF xmlns:dc="http://purl.org/dc/elements/1.1/" xmlns:cc="http://creativecommons.org/ns#" xmlns:rdf="http://www.w3.org/1999/02/22-rdf-syntax-ns#">
   <cc:Work>
    <dc:type rdf:resource="http://purl.org/dc/dcmitype/StillImage"/>
    <dc:date>2022-06-15T08:26:06.611994</dc:date>
    <dc:format>image/svg+xml</dc:format>
    <dc:creator>
     <cc:Agent>
      <dc:title>Matplotlib v3.5.1, https://matplotlib.org/</dc:title>
     </cc:Agent>
    </dc:creator>
   </cc:Work>
  </rdf:RDF>
 </metadata>
 <defs>
  <style type="text/css">*{stroke-linejoin: round; stroke-linecap: butt}</style>
 </defs>
 <g id="figure_1">
  <g id="patch_1">
   <path d="M 0 720 
L 864 720 
L 864 0 
L 0 0 
L 0 720 
z
" style="fill: none"/>
  </g>
  <g id="axes_1">
   <g id="patch_2">
    <path d="M 108 630 
L 777.6 630 
L 777.6 86.4 
L 108 86.4 
z
" style="fill: #ffffff"/>
   </g>
   <g id="PolyCollection_1">
    <defs>
     <path id="m685890a517" d="M 155.84332 -121.988562 
L 155.813823 -121.988562 
L 155.801774 -125.179681 
L 155.783144 -128.370799 
L 155.756464 -131.561918 
L 155.720899 -134.753037 
L 155.676464 -137.944155 
L 155.623892 -141.135274 
L 155.564177 -144.326393 
L 155.497876 -147.517512 
L 155.424312 -150.70863 
L 155.340645 -153.899749 
L 155.24071 -157.090868 
L 155.11367 -160.281986 
L 154.943036 -163.473105 
L 154.707 -166.664224 
L 154.380944 -169.855343 
L 153.94199 -173.046461 
L 153.374016 -176.23758 
L 152.670504 -179.428699 
L 151.832849 -182.619817 
L 150.863624 -185.810936 
L 149.757075 -189.002055 
L 148.491313 -192.193174 
L 147.027157 -195.384292 
L 145.316584 -198.575411 
L 143.320027 -201.76653 
L 141.027639 -204.957648 
L 138.477038 -208.148767 
L 135.76037 -211.339886 
L 133.017025 -214.531004 
L 130.413621 -217.722123 
L 128.117382 -220.913242 
L 126.27051 -224.104361 
L 124.971317 -227.295479 
L 124.264429 -230.486598 
L 124.139537 -233.677717 
L 124.537062 -236.868835 
L 125.359104 -240.059954 
L 126.484266 -243.251073 
L 127.78491 -246.442192 
L 129.145041 -249.63331 
L 130.476337 -252.824429 
L 131.729005 -256.015548 
L 132.894084 -259.206666 
L 133.995823 -262.397785 
L 135.076498 -265.588904 
L 136.179346 -268.780023 
L 137.335492 -271.971141 
L 138.55753 -275.16226 
L 139.838431 -278.353379 
L 141.152823 -281.544497 
L 142.459255 -284.735616 
L 143.704464 -287.926735 
L 144.831228 -291.117854 
L 145.789328 -294.308972 
L 146.546366 -297.500091 
L 147.094201 -300.69121 
L 147.44855 -303.882328 
L 147.642524 -307.073447 
L 147.717507 -310.264566 
L 147.715335 -313.455685 
L 147.67416 -316.646803 
L 147.627921 -319.837922 
L 147.607437 -323.029041 
L 147.64067 -326.220159 
L 147.750732 -329.411278 
L 147.951959 -332.602397 
L 148.245927 -335.793516 
L 148.619836 -338.984634 
L 149.048912 -342.175753 
L 149.50268 -345.366872 
L 149.953027 -348.55799 
L 150.380992 -351.749109 
L 150.779788 -354.940228 
L 151.153319 -358.131347 
L 151.511385 -361.322465 
L 151.863884 -364.513584 
L 152.21628 -367.704703 
L 152.567696 -370.895821 
L 152.91176 -374.08694 
L 153.239186 -377.278059 
L 153.54059 -380.469177 
L 153.808357 -383.660296 
L 154.037391 -386.851415 
L 154.225456 -390.042534 
L 154.373913 -393.233652 
L 154.488802 -396.424771 
L 154.581251 -399.61589 
L 154.666028 -402.807008 
L 154.758008 -405.998127 
L 154.867754 -409.189246 
L 154.998206 -412.380365 
L 155.144064 -415.571483 
L 155.29411 -418.762602 
L 155.435309 -421.953721 
L 155.556878 -425.144839 
L 155.652811 -428.335958 
L 155.722332 -431.527077 
L 155.76867 -434.718196 
L 155.797112 -437.909314 
L 155.860031 -437.909314 
L 155.860031 -437.909314 
L 155.888473 -434.718196 
L 155.934811 -431.527077 
L 156.004331 -428.335958 
L 156.100265 -425.144839 
L 156.221833 -421.953721 
L 156.363033 -418.762602 
L 156.513079 -415.571483 
L 156.658937 -412.380365 
L 156.789389 -409.189246 
L 156.899135 -405.998127 
L 156.991114 -402.807008 
L 157.075892 -399.61589 
L 157.168341 -396.424771 
L 157.28323 -393.233652 
L 157.431687 -390.042534 
L 157.619752 -386.851415 
L 157.848786 -383.660296 
L 158.116553 -380.469177 
L 158.417957 -377.278059 
L 158.745383 -374.08694 
L 159.089447 -370.895821 
L 159.440863 -367.704703 
L 159.793259 -364.513584 
L 160.145758 -361.322465 
L 160.503824 -358.131347 
L 160.877354 -354.940228 
L 161.276151 -351.749109 
L 161.704116 -348.55799 
L 162.154463 -345.366872 
L 162.608231 -342.175753 
L 163.037307 -338.984634 
L 163.411216 -335.793516 
L 163.705184 -332.602397 
L 163.906411 -329.411278 
L 164.016473 -326.220159 
L 164.049706 -323.029041 
L 164.029222 -319.837922 
L 163.982983 -316.646803 
L 163.941808 -313.455685 
L 163.939636 -310.264566 
L 164.014618 -307.073447 
L 164.208593 -303.882328 
L 164.562942 -300.69121 
L 165.110777 -297.500091 
L 165.867814 -294.308972 
L 166.825915 -291.117854 
L 167.952679 -287.926735 
L 169.197888 -284.735616 
L 170.50432 -281.544497 
L 171.818712 -278.353379 
L 173.099613 -275.16226 
L 174.321651 -271.971141 
L 175.477797 -268.780023 
L 176.580645 -265.588904 
L 177.66132 -262.397785 
L 178.763059 -259.206666 
L 179.928138 -256.015548 
L 181.180806 -252.824429 
L 182.512102 -249.63331 
L 183.872233 -246.442192 
L 185.172877 -243.251073 
L 186.298039 -240.059954 
L 187.120081 -236.868835 
L 187.517606 -233.677717 
L 187.392714 -230.486598 
L 186.685826 -227.295479 
L 185.386633 -224.104361 
L 183.539761 -220.913242 
L 181.243522 -217.722123 
L 178.640118 -214.531004 
L 175.896773 -211.339886 
L 173.180105 -208.148767 
L 170.629504 -204.957648 
L 168.337116 -201.76653 
L 166.340559 -198.575411 
L 164.629986 -195.384292 
L 163.16583 -192.193174 
L 161.900068 -189.002055 
L 160.793519 -185.810936 
L 159.824294 -182.619817 
L 158.986638 -179.428699 
L 158.283127 -176.23758 
L 157.715153 -173.046461 
L 157.276199 -169.855343 
L 156.950143 -166.664224 
L 156.714107 -163.473105 
L 156.543473 -160.281986 
L 156.416433 -157.090868 
L 156.316498 -153.899749 
L 156.232831 -150.70863 
L 156.159267 -147.517512 
L 156.092966 -144.326393 
L 156.033251 -141.135274 
L 155.980679 -137.944155 
L 155.936244 -134.753037 
L 155.900679 -131.561918 
L 155.873998 -128.370799 
L 155.855369 -125.179681 
L 155.84332 -121.988562 
z
" style="stroke: #343434; stroke-width: 1.5"/>
    </defs>
    <g clip-path="url(#pe60ca776f5)">
     <use xlink:href="#m685890a517" x="0" y="720" style="fill: #179638; stroke: #343434; stroke-width: 1.5"/>
    </g>
   </g>
   <g id="PolyCollection_2">
    <defs>
     <path id="mbd8122c8e8" d="M 251.542496 -114.709091 
L 251.428933 -114.709091 
L 251.378103 -118.136478 
L 251.290199 -121.563864 
L 251.144864 -124.991251 
L 250.915047 -128.418638 
L 250.567399 -131.846025 
L 250.064278 -135.273411 
L 249.367801 -138.700798 
L 248.445956 -142.128185 
L 247.280194 -145.555572 
L 245.873236 -148.982958 
L 244.255242 -152.410345 
L 242.48627 -155.837732 
L 240.653375 -159.265118 
L 238.861714 -162.692505 
L 237.220537 -166.119892 
L 235.826542 -169.547279 
L 234.748151 -172.974665 
L 234.014445 -176.402052 
L 233.611508 -179.829439 
L 233.486978 -183.256826 
L 233.561434 -186.684212 
L 233.743447 -190.111599 
L 233.944584 -193.538986 
L 234.091286 -196.966373 
L 234.132158 -200.393759 
L 234.04084 -203.821146 
L 233.815642 -207.248533 
L 233.477207 -210.67592 
L 233.064769 -214.103306 
L 232.630944 -217.530693 
L 232.234783 -220.95808 
L 231.9334 -224.385467 
L 231.773396 -227.812853 
L 231.783994 -231.24024 
L 231.973711 -234.667627 
L 232.331465 -238.095013 
L 232.831575 -241.5224 
L 233.440903 -244.949787 
L 234.125856 -248.377174 
L 234.857371 -251.80456 
L 235.613075 -255.231947 
L 236.376918 -258.659334 
L 237.137367 -262.086721 
L 237.885362 -265.514107 
L 238.612872 -268.941494 
L 239.312255 -272.368881 
L 239.976207 -275.796268 
L 240.59791 -279.223654 
L 241.171184 -282.651041 
L 241.690744 -286.078428 
L 242.15286 -289.505815 
L 242.5566 -292.933201 
L 242.905428 -296.360588 
L 243.208528 -299.787975 
L 243.481012 -303.215361 
L 243.74241 -306.642748 
L 244.013446 -310.070135 
L 244.311779 -313.497522 
L 244.64787 -316.924908 
L 245.022176 -320.352295 
L 245.424459 -323.779682 
L 245.835417 -327.207069 
L 246.23019 -330.634455 
L 246.582937 -334.061842 
L 246.871553 -337.489229 
L 247.081675 -340.916616 
L 247.209317 -344.344002 
L 247.261665 -347.771389 
L 247.25579 -351.198776 
L 247.21541 -354.626163 
L 247.166286 -358.053549 
L 247.131314 -361.480936 
L 247.126658 -364.908323 
L 247.160013 -368.335709 
L 247.231473 -371.763096 
L 247.336513 -375.190483 
L 247.469813 -378.61787 
L 247.628389 -382.045256 
L 247.812825 -385.472643 
L 248.026286 -388.90003 
L 248.271919 -392.327417 
L 248.549887 -395.754803 
L 248.855368 -399.18219 
L 249.178339 -402.609577 
L 249.505184 -406.036964 
L 249.821434 -409.46435 
L 250.114602 -412.891737 
L 250.376158 -416.319124 
L 250.602182 -419.746511 
L 250.792762 -423.173897 
L 250.950652 -426.601284 
L 251.079794 -430.028671 
L 251.184204 -433.456058 
L 251.26741 -436.883444 
L 251.332384 -440.310831 
L 251.381731 -443.738218 
L 251.417914 -447.165604 
L 251.443364 -450.592991 
L 251.460448 -454.020378 
L 251.510981 -454.020378 
L 251.510981 -454.020378 
L 251.528064 -450.592991 
L 251.553514 -447.165604 
L 251.589698 -443.738218 
L 251.639045 -440.310831 
L 251.704019 -436.883444 
L 251.787225 -433.456058 
L 251.891634 -430.028671 
L 252.020776 -426.601284 
L 252.178667 -423.173897 
L 252.369247 -419.746511 
L 252.595271 -416.319124 
L 252.856827 -412.891737 
L 253.149995 -409.46435 
L 253.466245 -406.036964 
L 253.793089 -402.609577 
L 254.11606 -399.18219 
L 254.421541 -395.754803 
L 254.699509 -392.327417 
L 254.945142 -388.90003 
L 255.158604 -385.472643 
L 255.34304 -382.045256 
L 255.501616 -378.61787 
L 255.634916 -375.190483 
L 255.739955 -371.763096 
L 255.811415 -368.335709 
L 255.84477 -364.908323 
L 255.840114 -361.480936 
L 255.805143 -358.053549 
L 255.756018 -354.626163 
L 255.715639 -351.198776 
L 255.709763 -347.771389 
L 255.762111 -344.344002 
L 255.889754 -340.916616 
L 256.099876 -337.489229 
L 256.388492 -334.061842 
L 256.741239 -330.634455 
L 257.136011 -327.207069 
L 257.54697 -323.779682 
L 257.949253 -320.352295 
L 258.323558 -316.924908 
L 258.65965 -313.497522 
L 258.957982 -310.070135 
L 259.229018 -306.642748 
L 259.490417 -303.215361 
L 259.7629 -299.787975 
L 260.066 -296.360588 
L 260.414828 -292.933201 
L 260.818568 -289.505815 
L 261.280685 -286.078428 
L 261.800244 -282.651041 
L 262.373518 -279.223654 
L 262.995222 -275.796268 
L 263.659174 -272.368881 
L 264.358556 -268.941494 
L 265.086066 -265.514107 
L 265.834062 -262.086721 
L 266.59451 -258.659334 
L 267.358353 -255.231947 
L 268.114058 -251.80456 
L 268.845573 -248.377174 
L 269.530525 -244.949787 
L 270.139854 -241.5224 
L 270.639964 -238.095013 
L 270.997718 -234.667627 
L 271.187435 -231.24024 
L 271.198033 -227.812853 
L 271.038029 -224.385467 
L 270.736646 -220.95808 
L 270.340485 -217.530693 
L 269.906659 -214.103306 
L 269.494221 -210.67592 
L 269.155786 -207.248533 
L 268.930589 -203.821146 
L 268.83927 -200.393759 
L 268.880142 -196.966373 
L 269.026845 -193.538986 
L 269.227981 -190.111599 
L 269.409995 -186.684212 
L 269.48445 -183.256826 
L 269.359921 -179.829439 
L 268.956983 -176.402052 
L 268.223278 -172.974665 
L 267.144886 -169.547279 
L 265.750891 -166.119892 
L 264.109715 -162.692505 
L 262.318054 -159.265118 
L 260.485159 -155.837732 
L 258.716186 -152.410345 
L 257.098192 -148.982958 
L 255.691235 -145.555572 
L 254.525472 -142.128185 
L 253.603627 -138.700798 
L 252.907151 -135.273411 
L 252.404029 -131.846025 
L 252.056381 -128.418638 
L 251.826565 -124.991251 
L 251.68123 -121.563864 
L 251.593326 -118.136478 
L 251.542496 -114.709091 
z
" style="stroke: #343434; stroke-width: 1.5"/>
    </defs>
    <g clip-path="url(#pe60ca776f5)">
     <use xlink:href="#mbd8122c8e8" x="0" y="720" style="fill: #934f96; stroke: #343434; stroke-width: 1.5"/>
    </g>
   </g>
   <g id="PolyCollection_3">
    <defs>
     <path id="m9c94399250" d="M 347.158766 -121.598766 
L 347.126949 -121.598766 
L 347.111074 -125.810154 
L 347.082893 -130.021541 
L 347.034822 -134.232929 
L 346.954722 -138.444316 
L 346.822675 -142.655704 
L 346.606344 -146.867091 
L 346.25571 -151.078479 
L 345.699101 -155.289866 
L 344.843242 -159.501254 
L 343.580135 -163.712641 
L 341.802667 -167.924029 
L 339.429006 -172.135416 
L 336.433139 -176.346804 
L 332.875496 -180.558191 
L 328.923975 -184.769579 
L 324.853783 -188.980966 
L 321.017052 -193.192354 
L 317.782116 -197.403741 
L 315.455648 -201.615128 
L 314.212103 -205.826516 
L 314.056506 -210.037903 
L 314.835415 -214.249291 
L 316.291543 -218.460678 
L 318.140159 -222.672066 
L 320.138966 -226.883453 
L 322.129824 -231.094841 
L 324.045086 -235.306228 
L 325.885271 -239.517616 
L 327.682452 -243.729003 
L 329.464374 -247.940391 
L 331.230387 -252.151778 
L 332.94472 -256.363166 
L 334.546637 -260.574553 
L 335.971476 -264.785941 
L 337.172784 -268.997328 
L 338.135937 -273.208716 
L 338.878344 -277.420103 
L 339.438542 -281.631491 
L 339.861693 -285.842878 
L 340.189297 -290.054266 
L 340.456533 -294.265653 
L 340.695078 -298.477041 
L 340.936217 -302.688428 
L 341.210105 -306.899816 
L 341.540644 -311.111203 
L 341.938757 -315.322591 
L 342.397856 -319.533978 
L 342.893901 -323.745366 
L 343.390156 -327.956753 
L 343.845016 -332.168141 
L 344.22062 -336.379528 
L 344.490124 -340.590916 
L 344.642208 -344.802303 
L 344.682386 -349.01369 
L 344.631658 -353.225078 
L 344.5232 -357.436465 
L 344.39717 -361.647853 
L 344.293212 -365.85924 
L 344.241314 -370.070628 
L 344.254011 -374.282015 
L 344.324326 -378.493403 
L 344.431855 -382.70479 
L 344.554545 -386.916178 
L 344.679587 -391.127565 
L 344.807274 -395.338953 
L 344.946519 -399.55034 
L 345.106292 -403.761728 
L 345.289065 -407.973115 
L 345.489694 -412.184503 
L 345.698688 -416.39589 
L 345.906302 -420.607278 
L 346.104609 -424.818665 
L 346.287262 -429.030053 
L 346.448509 -433.24144 
L 346.583005 -437.452828 
L 346.686671 -441.664215 
L 346.757771 -445.875603 
L 346.7974 -450.08699 
L 346.809268 -454.298378 
L 346.799215 -458.509765 
L 346.774695 -462.721153 
L 346.74406 -466.93254 
L 346.715381 -471.143928 
L 346.695034 -475.355315 
L 346.686657 -479.566703 
L 346.691051 -483.77809 
L 346.707009 -487.989478 
L 346.732523 -492.200865 
L 346.765735 -496.412252 
L 346.805242 -500.62364 
L 346.849826 -504.835027 
L 346.897909 -509.046415 
L 346.947169 -513.257802 
L 346.994613 -517.46919 
L 347.037147 -521.680577 
L 347.072357 -525.891965 
L 347.099121 -530.103352 
L 347.117728 -534.31474 
L 347.129532 -538.526127 
L 347.156183 -538.526127 
L 347.156183 -538.526127 
L 347.167986 -534.31474 
L 347.186593 -530.103352 
L 347.213357 -525.891965 
L 347.248568 -521.680577 
L 347.291101 -517.46919 
L 347.338546 -513.257802 
L 347.387805 -509.046415 
L 347.435888 -504.835027 
L 347.480472 -500.62364 
L 347.51998 -496.412252 
L 347.553191 -492.200865 
L 347.578706 -487.989478 
L 347.594663 -483.77809 
L 347.599058 -479.566703 
L 347.59068 -475.355315 
L 347.570333 -471.143928 
L 347.541654 -466.93254 
L 347.511019 -462.721153 
L 347.486499 -458.509765 
L 347.476446 -454.298378 
L 347.488315 -450.08699 
L 347.527943 -445.875603 
L 347.599044 -441.664215 
L 347.702709 -437.452828 
L 347.837205 -433.24144 
L 347.998452 -429.030053 
L 348.181105 -424.818665 
L 348.379412 -420.607278 
L 348.587026 -416.39589 
L 348.796021 -412.184503 
L 348.99665 -407.973115 
L 349.179423 -403.761728 
L 349.339195 -399.55034 
L 349.478441 -395.338953 
L 349.606127 -391.127565 
L 349.73117 -386.916178 
L 349.853859 -382.70479 
L 349.961389 -378.493403 
L 350.031703 -374.282015 
L 350.0444 -370.070628 
L 349.992503 -365.85924 
L 349.888545 -361.647853 
L 349.762514 -357.436465 
L 349.654057 -353.225078 
L 349.603328 -349.01369 
L 349.643506 -344.802303 
L 349.79559 -340.590916 
L 350.065094 -336.379528 
L 350.440698 -332.168141 
L 350.895558 -327.956753 
L 351.391813 -323.745366 
L 351.887858 -319.533978 
L 352.346957 -315.322591 
L 352.74507 -311.111203 
L 353.075609 -306.899816 
L 353.349497 -302.688428 
L 353.590636 -298.477041 
L 353.829181 -294.265653 
L 354.096418 -290.054266 
L 354.424021 -285.842878 
L 354.847172 -281.631491 
L 355.40737 -277.420103 
L 356.149777 -273.208716 
L 357.11293 -268.997328 
L 358.314239 -264.785941 
L 359.739077 -260.574553 
L 361.340994 -256.363166 
L 363.055328 -252.151778 
L 364.821341 -247.940391 
L 366.603262 -243.729003 
L 368.400444 -239.517616 
L 370.240628 -235.306228 
L 372.15589 -231.094841 
L 374.146748 -226.883453 
L 376.145555 -222.672066 
L 377.994171 -218.460678 
L 379.450299 -214.249291 
L 380.229208 -210.037903 
L 380.073611 -205.826516 
L 378.830066 -201.615128 
L 376.503599 -197.403741 
L 373.268663 -193.192354 
L 369.431931 -188.980966 
L 365.361739 -184.769579 
L 361.410218 -180.558191 
L 357.852575 -176.346804 
L 354.856709 -172.135416 
L 352.483047 -167.924029 
L 350.705579 -163.712641 
L 349.442472 -159.501254 
L 348.586613 -155.289866 
L 348.030004 -151.078479 
L 347.67937 -146.867091 
L 347.463039 -142.655704 
L 347.330992 -138.444316 
L 347.250892 -134.232929 
L 347.202821 -130.021541 
L 347.17464 -125.810154 
L 347.158766 -121.598766 
z
" style="stroke: #343434; stroke-width: 1.5"/>
    </defs>
    <g clip-path="url(#pe60ca776f5)">
     <use xlink:href="#m9c94399250" x="0" y="720" style="fill: #929491; stroke: #343434; stroke-width: 1.5"/>
    </g>
   </g>
   <g id="PolyCollection_4">
    <defs>
     <path id="mbcd870ee59" d="M 442.822687 -118.548862 
L 442.777313 -118.548862 
L 442.748766 -123.409328 
L 442.690481 -128.269795 
L 442.577461 -133.130262 
L 442.368869 -137.990729 
L 442.002309 -142.851196 
L 441.389632 -147.711662 
L 440.417894 -152.572129 
L 438.960364 -157.432596 
L 436.902148 -162.293063 
L 434.181057 -167.15353 
L 430.83611 -172.013996 
L 427.045856 -176.874463 
L 423.133076 -181.73493 
L 419.518662 -186.595397 
L 416.62749 -191.455864 
L 414.775129 -196.316331 
L 414.080764 -201.176797 
L 414.445416 -206.037264 
L 415.605267 -210.897731 
L 417.23339 -215.758198 
L 419.042176 -220.618665 
L 420.845452 -225.479131 
L 422.566763 -230.339598 
L 424.208117 -235.200065 
L 425.805465 -240.060532 
L 427.391781 -244.920999 
L 428.975967 -249.781465 
L 430.536383 -254.641932 
L 432.024801 -259.502399 
L 433.377252 -264.362866 
L 434.529053 -269.223333 
L 435.430826 -274.083799 
L 436.061434 -278.944266 
L 436.433999 -283.804733 
L 436.593363 -288.6652 
L 436.606362 -293.525667 
L 436.54827 -298.386133 
L 436.488799 -303.2466 
L 436.48052 -308.107067 
L 436.552397 -312.967534 
L 436.710321 -317.828001 
L 436.943752 -322.688467 
L 437.234033 -327.548934 
L 437.559153 -332.409401 
L 437.893281 -337.269868 
L 438.204586 -342.130335 
L 438.456827 -346.990801 
L 438.61721 -351.851268 
L 438.667798 -356.711735 
L 438.614629 -361.572202 
L 438.489629 -366.432669 
L 438.34403 -371.293136 
L 438.235619 -376.153602 
L 438.214102 -381.014069 
L 438.309203 -385.874536 
L 438.525127 -390.735003 
L 438.843047 -395.59547 
L 439.230251 -400.455936 
L 439.651758 -405.316403 
L 440.079212 -410.17687 
L 440.493814 -415.037337 
L 440.88382 -419.897804 
L 441.240176 -424.75827 
L 441.554123 -429.618737 
L 441.818172 -434.479204 
L 442.028986 -439.339671 
L 442.189377 -444.200138 
L 442.307607 -449.060604 
L 442.394291 -453.921071 
L 442.458769 -458.781538 
L 442.506911 -463.642005 
L 442.541194 -468.502472 
L 442.562394 -473.362938 
L 442.571534 -478.223405 
L 442.570957 -483.083872 
L 442.564277 -487.944339 
L 442.555698 -492.804806 
L 442.549342 -497.665272 
L 442.548869 -502.525739 
L 442.557159 -507.386206 
L 442.575777 -512.246673 
L 442.604277 -517.10714 
L 442.639848 -521.967606 
L 442.677805 -526.828073 
L 442.71288 -531.68854 
L 442.740756 -536.549007 
L 442.759104 -541.409474 
L 442.767819 -546.269941 
L 442.768632 -551.130407 
L 442.764458 -555.990874 
L 442.758687 -560.851341 
L 442.754437 -565.711808 
L 442.753824 -570.572275 
L 442.757474 -575.432741 
L 442.764541 -580.293208 
L 442.773263 -585.153675 
L 442.781776 -590.014142 
L 442.788773 -594.874609 
L 442.793749 -599.735075 
L 442.806251 -599.735075 
L 442.806251 -599.735075 
L 442.811227 -594.874609 
L 442.818224 -590.014142 
L 442.826737 -585.153675 
L 442.835459 -580.293208 
L 442.842526 -575.432741 
L 442.846176 -570.572275 
L 442.845563 -565.711808 
L 442.841313 -560.851341 
L 442.835542 -555.990874 
L 442.831368 -551.130407 
L 442.832181 -546.269941 
L 442.840896 -541.409474 
L 442.859244 -536.549007 
L 442.88712 -531.68854 
L 442.922195 -526.828073 
L 442.960152 -521.967606 
L 442.995723 -517.10714 
L 443.024223 -512.246673 
L 443.042841 -507.386206 
L 443.051131 -502.525739 
L 443.050658 -497.665272 
L 443.044302 -492.804806 
L 443.035723 -487.944339 
L 443.029043 -483.083872 
L 443.028466 -478.223405 
L 443.037606 -473.362938 
L 443.058806 -468.502472 
L 443.093089 -463.642005 
L 443.141231 -458.781538 
L 443.205709 -453.921071 
L 443.292393 -449.060604 
L 443.410623 -444.200138 
L 443.571014 -439.339671 
L 443.781828 -434.479204 
L 444.045877 -429.618737 
L 444.359824 -424.75827 
L 444.71618 -419.897804 
L 445.106186 -415.037337 
L 445.520788 -410.17687 
L 445.948242 -405.316403 
L 446.369749 -400.455936 
L 446.756953 -395.59547 
L 447.074873 -390.735003 
L 447.290797 -385.874536 
L 447.385898 -381.014069 
L 447.364381 -376.153602 
L 447.25597 -371.293136 
L 447.110371 -366.432669 
L 446.985371 -361.572202 
L 446.932202 -356.711735 
L 446.98279 -351.851268 
L 447.143173 -346.990801 
L 447.395414 -342.130335 
L 447.706719 -337.269868 
L 448.040847 -332.409401 
L 448.365967 -327.548934 
L 448.656248 -322.688467 
L 448.889679 -317.828001 
L 449.047603 -312.967534 
L 449.11948 -308.107067 
L 449.111201 -303.2466 
L 449.05173 -298.386133 
L 448.993638 -293.525667 
L 449.006637 -288.6652 
L 449.166001 -283.804733 
L 449.538566 -278.944266 
L 450.169174 -274.083799 
L 451.070947 -269.223333 
L 452.222748 -264.362866 
L 453.575199 -259.502399 
L 455.063617 -254.641932 
L 456.624033 -249.781465 
L 458.208219 -244.920999 
L 459.794535 -240.060532 
L 461.391883 -235.200065 
L 463.033237 -230.339598 
L 464.754548 -225.479131 
L 466.557824 -220.618665 
L 468.36661 -215.758198 
L 469.994733 -210.897731 
L 471.154584 -206.037264 
L 471.519236 -201.176797 
L 470.824871 -196.316331 
L 468.97251 -191.455864 
L 466.081338 -186.595397 
L 462.466924 -181.73493 
L 458.554144 -176.874463 
L 454.76389 -172.013996 
L 451.418943 -167.15353 
L 448.697852 -162.293063 
L 446.639636 -157.432596 
L 445.182106 -152.572129 
L 444.210368 -147.711662 
L 443.597691 -142.851196 
L 443.231131 -137.990729 
L 443.022539 -133.130262 
L 442.909519 -128.269795 
L 442.851234 -123.409328 
L 442.822687 -118.548862 
z
" style="stroke: #343434; stroke-width: 1.5"/>
    </defs>
    <g clip-path="url(#pe60ca776f5)">
     <use xlink:href="#mbcd870ee59" x="0" y="720" style="fill: #e5e651; stroke: #343434; stroke-width: 1.5"/>
    </g>
   </g>
   <g id="PolyCollection_5">
    <defs>
     <path id="mc4d4d81c3b" d="M 538.559406 -118.502976 
L 538.35488 -118.502976 
L 538.264445 -122.248756 
L 538.111939 -125.994536 
L 537.868892 -129.740315 
L 537.503053 -133.486095 
L 536.983365 -137.231875 
L 536.287388 -140.977655 
L 535.409795 -144.723435 
L 534.369408 -148.469215 
L 533.211565 -152.214995 
L 532.003268 -155.960775 
L 530.820513 -159.706555 
L 529.730204 -163.452335 
L 528.771825 -167.198115 
L 527.945204 -170.943895 
L 527.209463 -174.689675 
L 526.49463 -178.435455 
L 525.722904 -182.181235 
L 524.832936 -185.927015 
L 523.79937 -189.672795 
L 522.641631 -193.418575 
L 521.419811 -197.164354 
L 520.219782 -200.910134 
L 519.132809 -204.655914 
L 518.235935 -208.401694 
L 517.578289 -212.147474 
L 517.17599 -215.893254 
L 517.015453 -219.639034 
L 517.062756 -223.384814 
L 517.275537 -227.130594 
L 517.613919 -230.876374 
L 518.047879 -234.622154 
L 518.559858 -238.367934 
L 519.142995 -242.113714 
L 519.796588 -245.859494 
L 520.520999 -249.605274 
L 521.313916 -253.351054 
L 522.168869 -257.096834 
L 523.075676 -260.842614 
L 524.021618 -264.588393 
L 524.992152 -268.334173 
L 525.970685 -272.079953 
L 526.937895 -275.825733 
L 527.8716 -279.571513 
L 528.747959 -283.317293 
L 529.544031 -287.063073 
L 530.2409 -290.808853 
L 530.826268 -294.554633 
L 531.295684 -298.300413 
L 531.652272 -302.046193 
L 531.905395 -305.791973 
L 532.068937 -309.537753 
L 532.159734 -313.283533 
L 532.196335 -317.029313 
L 532.198025 -320.775093 
L 532.183977 -324.520873 
L 532.172426 -328.266652 
L 532.179819 -332.012432 
L 532.219807 -335.758212 
L 532.301919 -339.503992 
L 532.429884 -343.249772 
L 532.599913 -346.995552 
L 532.799708 -350.741332 
L 533.00916 -354.487112 
L 533.203429 -358.232892 
L 533.358255 -361.978672 
L 533.456367 -365.724452 
L 533.493078 -369.470232 
L 533.479147 -373.216012 
L 533.439716 -376.961792 
L 533.40942 -380.707572 
L 533.424959 -384.453352 
L 533.517199 -388.199132 
L 533.704815 -391.944912 
L 533.990911 -395.690691 
L 534.36311 -399.436471 
L 534.796719 -403.182251 
L 535.259979 -406.928031 
L 535.720094 -410.673811 
L 536.148768 -414.419591 
L 536.526159 -418.165371 
L 536.842652 -421.911151 
L 537.09832 -425.656931 
L 537.300586 -429.402711 
L 537.460915 -433.148491 
L 537.591552 -436.894271 
L 537.703057 -440.640051 
L 537.803019 -444.385831 
L 537.895871 -448.131611 
L 537.983425 -451.877391 
L 538.065718 -455.623171 
L 538.141813 -459.368951 
L 538.210427 -463.11473 
L 538.270368 -466.86051 
L 538.320831 -470.60629 
L 538.361575 -474.35207 
L 538.392989 -478.09785 
L 538.41603 -481.84363 
L 538.432057 -485.58941 
L 538.4426 -489.33519 
L 538.471685 -489.33519 
L 538.471685 -489.33519 
L 538.482229 -485.58941 
L 538.498255 -481.84363 
L 538.521297 -478.09785 
L 538.552711 -474.35207 
L 538.593455 -470.60629 
L 538.643918 -466.86051 
L 538.703859 -463.11473 
L 538.772472 -459.368951 
L 538.848568 -455.623171 
L 538.930861 -451.877391 
L 539.018415 -448.131611 
L 539.111266 -444.385831 
L 539.211229 -440.640051 
L 539.322733 -436.894271 
L 539.45337 -433.148491 
L 539.6137 -429.402711 
L 539.815965 -425.656931 
L 540.071634 -421.911151 
L 540.388126 -418.165371 
L 540.765518 -414.419591 
L 541.194191 -410.673811 
L 541.654307 -406.928031 
L 542.117566 -403.182251 
L 542.551176 -399.436471 
L 542.923375 -395.690691 
L 543.209471 -391.944912 
L 543.397086 -388.199132 
L 543.489327 -384.453352 
L 543.504866 -380.707572 
L 543.47457 -376.961792 
L 543.435139 -373.216012 
L 543.421208 -369.470232 
L 543.457919 -365.724452 
L 543.556031 -361.978672 
L 543.710857 -358.232892 
L 543.905126 -354.487112 
L 544.114578 -350.741332 
L 544.314373 -346.995552 
L 544.484402 -343.249772 
L 544.612367 -339.503992 
L 544.694479 -335.758212 
L 544.734466 -332.012432 
L 544.74186 -328.266652 
L 544.730309 -324.520873 
L 544.71626 -320.775093 
L 544.717951 -317.029313 
L 544.754552 -313.283533 
L 544.845349 -309.537753 
L 545.008891 -305.791973 
L 545.262014 -302.046193 
L 545.618602 -298.300413 
L 546.088018 -294.554633 
L 546.673385 -290.808853 
L 547.370255 -287.063073 
L 548.166327 -283.317293 
L 549.042686 -279.571513 
L 549.976391 -275.825733 
L 550.943601 -272.079953 
L 551.922134 -268.334173 
L 552.892667 -264.588393 
L 553.838609 -260.842614 
L 554.745416 -257.096834 
L 555.600369 -253.351054 
L 556.393286 -249.605274 
L 557.117698 -245.859494 
L 557.771291 -242.113714 
L 558.354428 -238.367934 
L 558.866407 -234.622154 
L 559.300366 -230.876374 
L 559.638749 -227.130594 
L 559.851529 -223.384814 
L 559.898833 -219.639034 
L 559.738296 -215.893254 
L 559.335996 -212.147474 
L 558.678351 -208.401694 
L 557.781477 -204.655914 
L 556.694504 -200.910134 
L 555.494475 -197.164354 
L 554.272655 -193.418575 
L 553.114916 -189.672795 
L 552.08135 -185.927015 
L 551.191382 -182.181235 
L 550.419656 -178.435455 
L 549.704823 -174.689675 
L 548.969082 -170.943895 
L 548.142461 -167.198115 
L 547.184081 -163.452335 
L 546.093773 -159.706555 
L 544.911018 -155.960775 
L 543.702721 -152.214995 
L 542.544878 -148.469215 
L 541.50449 -144.723435 
L 540.626898 -140.977655 
L 539.93092 -137.231875 
L 539.411233 -133.486095 
L 539.045394 -129.740315 
L 538.802347 -125.994536 
L 538.64984 -122.248756 
L 538.559406 -118.502976 
z
" style="stroke: #343434; stroke-width: 1.5"/>
    </defs>
    <g clip-path="url(#pe60ca776f5)">
     <use xlink:href="#mc4d4d81c3b" x="0" y="720" style="fill: #d74529; stroke: #343434; stroke-width: 1.5"/>
    </g>
   </g>
   <g id="PolyCollection_6">
    <defs>
     <path id="md661cb1095" d="M 634.130208 -128.600586 
L 634.098364 -128.600586 
L 634.079216 -133.452003 
L 634.041676 -138.303421 
L 633.972257 -143.154838 
L 633.850682 -148.006256 
L 633.648455 -152.857673 
L 633.328409 -157.709091 
L 632.845799 -162.560508 
L 632.150823 -167.411925 
L 631.191464 -172.263343 
L 629.915433 -177.11476 
L 628.271929 -181.966178 
L 626.21729 -186.817595 
L 623.72992 -191.669012 
L 620.835598 -196.52043 
L 617.635019 -201.371847 
L 614.31781 -206.223265 
L 611.149101 -211.074682 
L 608.426868 -215.926099 
L 606.422812 -220.777517 
L 605.326438 -225.628934 
L 605.208535 -230.480352 
L 606.011919 -235.331769 
L 607.569992 -240.183186 
L 609.648204 -245.034604 
L 611.997224 -249.886021 
L 614.40088 -254.737439 
L 616.702758 -259.588856 
L 618.80589 -264.440273 
L 620.654555 -269.291691 
L 622.215047 -274.143108 
L 623.467635 -278.994526 
L 624.409998 -283.845943 
L 625.063542 -288.69736 
L 625.474195 -293.548778 
L 625.705808 -298.400195 
L 625.830349 -303.251613 
L 625.919963 -308.10303 
L 626.042181 -312.954447 
L 626.25531 -317.805865 
L 626.60036 -322.657282 
L 627.089804 -327.5087 
L 627.698839 -332.360117 
L 628.366884 -337.211534 
L 629.013097 -342.062952 
L 629.561749 -346.914369 
L 629.966546 -351.765787 
L 630.222513 -356.617204 
L 630.36036 -361.468621 
L 630.427774 -366.320039 
L 630.468459 -371.171456 
L 630.509311 -376.022874 
L 630.559501 -380.874291 
L 630.617642 -385.725708 
L 630.679837 -390.577126 
L 630.74374 -395.428543 
L 630.808717 -400.279961 
L 630.875079 -405.131378 
L 630.944422 -409.982796 
L 631.020452 -414.834213 
L 631.108561 -419.68563 
L 631.213881 -424.537048 
L 631.339496 -429.388465 
L 631.486449 -434.239883 
L 631.655315 -439.0913 
L 631.847327 -443.942717 
L 632.063455 -448.794135 
L 632.301842 -453.645552 
L 632.555519 -458.49697 
L 632.81206 -463.348387 
L 633.055489 -468.199804 
L 633.269721 -473.051222 
L 633.442565 -477.902639 
L 633.569228 -482.754057 
L 633.653959 -487.605474 
L 633.708705 -492.456891 
L 633.748864 -497.308309 
L 633.787884 -502.159726 
L 633.83324 -507.011144 
L 633.885459 -511.862561 
L 633.940067 -516.713978 
L 633.99089 -521.565396 
L 634.032889 -526.416813 
L 634.063486 -531.268231 
L 634.082415 -536.119648 
L 634.090778 -540.971065 
L 634.090148 -545.822483 
L 634.08221 -550.6739 
L 634.068972 -555.525318 
L 634.053153 -560.376735 
L 634.03824 -565.228152 
L 634.027897 -570.07957 
L 634.024882 -574.930987 
L 634.030053 -579.782405 
L 634.042055 -584.633822 
L 634.057925 -589.485239 
L 634.074281 -594.336657 
L 634.088467 -599.188074 
L 634.09914 -604.039492 
L 634.106215 -608.890909 
L 634.122357 -608.890909 
L 634.122357 -608.890909 
L 634.129431 -604.039492 
L 634.140105 -599.188074 
L 634.15429 -594.336657 
L 634.170646 -589.485239 
L 634.186517 -584.633822 
L 634.198519 -579.782405 
L 634.203689 -574.930987 
L 634.200675 -570.07957 
L 634.190332 -565.228152 
L 634.175419 -560.376735 
L 634.1596 -555.525318 
L 634.146361 -550.6739 
L 634.138424 -545.822483 
L 634.137793 -540.971065 
L 634.146156 -536.119648 
L 634.165085 -531.268231 
L 634.195683 -526.416813 
L 634.237681 -521.565396 
L 634.288505 -516.713978 
L 634.343113 -511.862561 
L 634.395332 -507.011144 
L 634.440688 -502.159726 
L 634.479707 -497.308309 
L 634.519866 -492.456891 
L 634.574613 -487.605474 
L 634.659344 -482.754057 
L 634.786007 -477.902639 
L 634.958851 -473.051222 
L 635.173082 -468.199804 
L 635.416511 -463.348387 
L 635.673052 -458.49697 
L 635.926729 -453.645552 
L 636.165116 -448.794135 
L 636.381244 -443.942717 
L 636.573256 -439.0913 
L 636.742123 -434.239883 
L 636.889076 -429.388465 
L 637.01469 -424.537048 
L 637.120011 -419.68563 
L 637.208119 -414.834213 
L 637.284149 -409.982796 
L 637.353492 -405.131378 
L 637.419854 -400.279961 
L 637.484831 -395.428543 
L 637.548734 -390.577126 
L 637.610929 -385.725708 
L 637.669071 -380.874291 
L 637.719261 -376.022874 
L 637.760113 -371.171456 
L 637.800798 -366.320039 
L 637.868211 -361.468621 
L 638.006059 -356.617204 
L 638.262025 -351.765787 
L 638.666823 -346.914369 
L 639.215474 -342.062952 
L 639.861688 -337.211534 
L 640.529732 -332.360117 
L 641.138767 -327.5087 
L 641.628211 -322.657282 
L 641.973262 -317.805865 
L 642.18639 -312.954447 
L 642.308609 -308.10303 
L 642.398222 -303.251613 
L 642.522763 -298.400195 
L 642.754376 -293.548778 
L 643.165029 -288.69736 
L 643.818573 -283.845943 
L 644.760936 -278.994526 
L 646.013525 -274.143108 
L 647.574016 -269.291691 
L 649.422681 -264.440273 
L 651.525813 -259.588856 
L 653.827691 -254.737439 
L 656.231347 -249.886021 
L 658.580368 -245.034604 
L 660.65858 -240.183186 
L 662.216652 -235.331769 
L 663.020036 -230.480352 
L 662.902134 -225.628934 
L 661.805759 -220.777517 
L 659.801704 -215.926099 
L 657.07947 -211.074682 
L 653.910761 -206.223265 
L 650.593553 -201.371847 
L 647.392974 -196.52043 
L 644.498651 -191.669012 
L 642.011281 -186.817595 
L 639.956643 -181.966178 
L 638.313139 -177.11476 
L 637.037107 -172.263343 
L 636.077748 -167.411925 
L 635.382772 -162.560508 
L 634.900162 -157.709091 
L 634.580116 -152.857673 
L 634.377889 -148.006256 
L 634.256314 -143.154838 
L 634.186896 -138.303421 
L 634.149355 -133.452003 
L 634.130208 -128.600586 
z
" style="stroke: #343434; stroke-width: 1.5"/>
    </defs>
    <g clip-path="url(#pe60ca776f5)">
     <use xlink:href="#md661cb1095" x="0" y="720" style="fill: #2271d1; stroke: #343434; stroke-width: 1.5"/>
    </g>
   </g>
   <g id="PolyCollection_7">
    <defs>
     <path id="m7d4ced52c0" d="M 730.214051 -141.633473 
L 729.328806 -141.633473 
L 729.061703 -144.488816 
L 728.66511 -147.344159 
L 728.094524 -150.199502 
L 727.299226 -153.054845 
L 726.225573 -155.910188 
L 724.82218 -158.76553 
L 723.046818 -161.620873 
L 720.874438 -164.476216 
L 718.305238 -167.331559 
L 715.371424 -170.186902 
L 712.141128 -173.042245 
L 708.718237 -175.897588 
L 705.237397 -178.752931 
L 701.85433 -181.608274 
L 698.732493 -184.463617 
L 696.027922 -187.31896 
L 693.874527 -190.174303 
L 692.372104 -193.029646 
L 691.578756 -195.884989 
L 691.508571 -198.740332 
L 692.134358 -201.595675 
L 693.39438 -204.451018 
L 695.201454 -207.306361 
L 697.452682 -210.161704 
L 700.038345 -213.017047 
L 702.849052 -215.87239 
L 705.780849 -218.727733 
L 708.738479 -221.583076 
L 711.637317 -224.438419 
L 714.404512 -227.293762 
L 716.979752 -230.149105 
L 719.315815 -233.004448 
L 721.378836 -235.85979 
L 723.148113 -238.715133 
L 724.615247 -241.570476 
L 725.782556 -244.425819 
L 726.66083 -247.281162 
L 727.266719 -250.136505 
L 727.620084 -252.991848 
L 727.741707 -255.847191 
L 727.65161 -258.702534 
L 727.368155 -261.557877 
L 726.907882 -264.41322 
L 726.285984 -267.268563 
L 725.517203 -270.123906 
L 724.616971 -272.979249 
L 723.602628 -275.834592 
L 722.494598 -278.689935 
L 721.317419 -281.545278 
L 720.100517 -284.400621 
L 718.87856 -287.255964 
L 717.691221 -290.111307 
L 716.582163 -292.96665 
L 715.597155 -295.821993 
L 714.78134 -298.677336 
L 714.17587 -301.532679 
L 713.814295 -304.388022 
L 713.719198 -307.243365 
L 713.89961 -310.098708 
L 714.349633 -312.954051 
L 715.04853 -315.809393 
L 715.962313 -318.664736 
L 717.046612 -321.520079 
L 718.250455 -324.375422 
L 719.520465 -327.230765 
L 720.80498 -330.086108 
L 722.057652 -332.941451 
L 723.240192 -335.796794 
L 724.324051 -338.652137 
L 725.290989 -341.50748 
L 726.132589 -344.362823 
L 726.848931 -347.218166 
L 727.446684 -350.073509 
L 727.936948 -352.928852 
L 728.333157 -355.784195 
L 728.649291 -358.639538 
L 728.898572 -361.494881 
L 729.092699 -364.350224 
L 729.241567 -367.205567 
L 729.353377 -370.06091 
L 729.434957 -372.916253 
L 729.492166 -375.771596 
L 729.530232 -378.626939 
L 729.553969 -381.482282 
L 729.567837 -384.337625 
L 729.575873 -387.192968 
L 729.581535 -390.048311 
L 729.587533 -392.903653 
L 729.595709 -395.758996 
L 729.606995 -398.614339 
L 729.621493 -401.469682 
L 729.638637 -404.325025 
L 729.657425 -407.180368 
L 729.676672 -410.035711 
L 729.695237 -412.891054 
L 729.712189 -415.746397 
L 729.726904 -418.60174 
L 729.739085 -421.457083 
L 729.748723 -424.312426 
L 729.794134 -424.312426 
L 729.794134 -424.312426 
L 729.803772 -421.457083 
L 729.815953 -418.60174 
L 729.830668 -415.746397 
L 729.84762 -412.891054 
L 729.866185 -410.035711 
L 729.885432 -407.180368 
L 729.90422 -404.325025 
L 729.921364 -401.469682 
L 729.935862 -398.614339 
L 729.947149 -395.758996 
L 729.955324 -392.903653 
L 729.961322 -390.048311 
L 729.966984 -387.192968 
L 729.97502 -384.337625 
L 729.988888 -381.482282 
L 730.012625 -378.626939 
L 730.050691 -375.771596 
L 730.1079 -372.916253 
L 730.189481 -370.06091 
L 730.30129 -367.205567 
L 730.450158 -364.350224 
L 730.644285 -361.494881 
L 730.893567 -358.639538 
L 731.209701 -355.784195 
L 731.605909 -352.928852 
L 732.096174 -350.073509 
L 732.693926 -347.218166 
L 733.410268 -344.362823 
L 734.251868 -341.50748 
L 735.218806 -338.652137 
L 736.302665 -335.796794 
L 737.485205 -332.941451 
L 738.737877 -330.086108 
L 740.022392 -327.230765 
L 741.292402 -324.375422 
L 742.496245 -321.520079 
L 743.580544 -318.664736 
L 744.494327 -315.809393 
L 745.193224 -312.954051 
L 745.643247 -310.098708 
L 745.823659 -307.243365 
L 745.728563 -304.388022 
L 745.366987 -301.532679 
L 744.761517 -298.677336 
L 743.945702 -295.821993 
L 742.960694 -292.96665 
L 741.851636 -290.111307 
L 740.664297 -287.255964 
L 739.44234 -284.400621 
L 738.225438 -281.545278 
L 737.048259 -278.689935 
L 735.940229 -275.834592 
L 734.925886 -272.979249 
L 734.025655 -270.123906 
L 733.256873 -267.268563 
L 732.634975 -264.41322 
L 732.174702 -261.557877 
L 731.891247 -258.702534 
L 731.80115 -255.847191 
L 731.922773 -252.991848 
L 732.276138 -250.136505 
L 732.882027 -247.281162 
L 733.760301 -244.425819 
L 734.92761 -241.570476 
L 736.394745 -238.715133 
L 738.164021 -235.85979 
L 740.227042 -233.004448 
L 742.563105 -230.149105 
L 745.138346 -227.293762 
L 747.90554 -224.438419 
L 750.804378 -221.583076 
L 753.762008 -218.727733 
L 756.693805 -215.87239 
L 759.504512 -213.017047 
L 762.090175 -210.161704 
L 764.341403 -207.306361 
L 766.148477 -204.451018 
L 767.408499 -201.595675 
L 768.034286 -198.740332 
L 767.964101 -195.884989 
L 767.170753 -193.029646 
L 765.66833 -190.174303 
L 763.514935 -187.31896 
L 760.810364 -184.463617 
L 757.688528 -181.608274 
L 754.30546 -178.752931 
L 750.82462 -175.897588 
L 747.401729 -173.042245 
L 744.171433 -170.186902 
L 741.237619 -167.331559 
L 738.66842 -164.476216 
L 736.496039 -161.620873 
L 734.720678 -158.76553 
L 733.317284 -155.910188 
L 732.243631 -153.054845 
L 731.448333 -150.199502 
L 730.877747 -147.344159 
L 730.481154 -144.488816 
L 730.214051 -141.633473 
z
" style="stroke: #343434; stroke-width: 1.5"/>
    </defs>
    <g clip-path="url(#pe60ca776f5)">
     <use xlink:href="#m7d4ced52c0" x="0" y="720" style="fill: #bad2f3; stroke: #343434; stroke-width: 1.5"/>
    </g>
   </g>
   <g id="matplotlib.axis_1">
    <g id="xtick_1">
     <g id="line2d_1">
      <defs>
       <path id="md1e0834111" d="M 0 0 
L 0 3.5 
" style="stroke: #000000; stroke-width: 0.8"/>
      </defs>
      <g>
       <use xlink:href="#md1e0834111" x="155.828571" y="630" style="stroke: #000000; stroke-width: 0.8"/>
      </g>
     </g>
     <g id="text_1">
      <!-- Disgusted -->
      <g transform="translate(130.826228 644.598438)scale(0.1 -0.1)">
       <defs>
        <path id="DejaVuSans-44" d="M 1259 4147 
L 1259 519 
L 2022 519 
Q 2988 519 3436 956 
Q 3884 1394 3884 2338 
Q 3884 3275 3436 3711 
Q 2988 4147 2022 4147 
L 1259 4147 
z
M 628 4666 
L 1925 4666 
Q 3281 4666 3915 4102 
Q 4550 3538 4550 2338 
Q 4550 1131 3912 565 
Q 3275 0 1925 0 
L 628 0 
L 628 4666 
z
" transform="scale(0.015625)"/>
        <path id="DejaVuSans-69" d="M 603 3500 
L 1178 3500 
L 1178 0 
L 603 0 
L 603 3500 
z
M 603 4863 
L 1178 4863 
L 1178 4134 
L 603 4134 
L 603 4863 
z
" transform="scale(0.015625)"/>
        <path id="DejaVuSans-73" d="M 2834 3397 
L 2834 2853 
Q 2591 2978 2328 3040 
Q 2066 3103 1784 3103 
Q 1356 3103 1142 2972 
Q 928 2841 928 2578 
Q 928 2378 1081 2264 
Q 1234 2150 1697 2047 
L 1894 2003 
Q 2506 1872 2764 1633 
Q 3022 1394 3022 966 
Q 3022 478 2636 193 
Q 2250 -91 1575 -91 
Q 1294 -91 989 -36 
Q 684 19 347 128 
L 347 722 
Q 666 556 975 473 
Q 1284 391 1588 391 
Q 1994 391 2212 530 
Q 2431 669 2431 922 
Q 2431 1156 2273 1281 
Q 2116 1406 1581 1522 
L 1381 1569 
Q 847 1681 609 1914 
Q 372 2147 372 2553 
Q 372 3047 722 3315 
Q 1072 3584 1716 3584 
Q 2034 3584 2315 3537 
Q 2597 3491 2834 3397 
z
" transform="scale(0.015625)"/>
        <path id="DejaVuSans-67" d="M 2906 1791 
Q 2906 2416 2648 2759 
Q 2391 3103 1925 3103 
Q 1463 3103 1205 2759 
Q 947 2416 947 1791 
Q 947 1169 1205 825 
Q 1463 481 1925 481 
Q 2391 481 2648 825 
Q 2906 1169 2906 1791 
z
M 3481 434 
Q 3481 -459 3084 -895 
Q 2688 -1331 1869 -1331 
Q 1566 -1331 1297 -1286 
Q 1028 -1241 775 -1147 
L 775 -588 
Q 1028 -725 1275 -790 
Q 1522 -856 1778 -856 
Q 2344 -856 2625 -561 
Q 2906 -266 2906 331 
L 2906 616 
Q 2728 306 2450 153 
Q 2172 0 1784 0 
Q 1141 0 747 490 
Q 353 981 353 1791 
Q 353 2603 747 3093 
Q 1141 3584 1784 3584 
Q 2172 3584 2450 3431 
Q 2728 3278 2906 2969 
L 2906 3500 
L 3481 3500 
L 3481 434 
z
" transform="scale(0.015625)"/>
        <path id="DejaVuSans-75" d="M 544 1381 
L 544 3500 
L 1119 3500 
L 1119 1403 
Q 1119 906 1312 657 
Q 1506 409 1894 409 
Q 2359 409 2629 706 
Q 2900 1003 2900 1516 
L 2900 3500 
L 3475 3500 
L 3475 0 
L 2900 0 
L 2900 538 
Q 2691 219 2414 64 
Q 2138 -91 1772 -91 
Q 1169 -91 856 284 
Q 544 659 544 1381 
z
M 1991 3584 
L 1991 3584 
z
" transform="scale(0.015625)"/>
        <path id="DejaVuSans-74" d="M 1172 4494 
L 1172 3500 
L 2356 3500 
L 2356 3053 
L 1172 3053 
L 1172 1153 
Q 1172 725 1289 603 
Q 1406 481 1766 481 
L 2356 481 
L 2356 0 
L 1766 0 
Q 1100 0 847 248 
Q 594 497 594 1153 
L 594 3053 
L 172 3053 
L 172 3500 
L 594 3500 
L 594 4494 
L 1172 4494 
z
" transform="scale(0.015625)"/>
        <path id="DejaVuSans-65" d="M 3597 1894 
L 3597 1613 
L 953 1613 
Q 991 1019 1311 708 
Q 1631 397 2203 397 
Q 2534 397 2845 478 
Q 3156 559 3463 722 
L 3463 178 
Q 3153 47 2828 -22 
Q 2503 -91 2169 -91 
Q 1331 -91 842 396 
Q 353 884 353 1716 
Q 353 2575 817 3079 
Q 1281 3584 2069 3584 
Q 2775 3584 3186 3129 
Q 3597 2675 3597 1894 
z
M 3022 2063 
Q 3016 2534 2758 2815 
Q 2500 3097 2075 3097 
Q 1594 3097 1305 2825 
Q 1016 2553 972 2059 
L 3022 2063 
z
" transform="scale(0.015625)"/>
        <path id="DejaVuSans-64" d="M 2906 2969 
L 2906 4863 
L 3481 4863 
L 3481 0 
L 2906 0 
L 2906 525 
Q 2725 213 2448 61 
Q 2172 -91 1784 -91 
Q 1150 -91 751 415 
Q 353 922 353 1747 
Q 353 2572 751 3078 
Q 1150 3584 1784 3584 
Q 2172 3584 2448 3432 
Q 2725 3281 2906 2969 
z
M 947 1747 
Q 947 1113 1208 752 
Q 1469 391 1925 391 
Q 2381 391 2643 752 
Q 2906 1113 2906 1747 
Q 2906 2381 2643 2742 
Q 2381 3103 1925 3103 
Q 1469 3103 1208 2742 
Q 947 2381 947 1747 
z
" transform="scale(0.015625)"/>
       </defs>
       <use xlink:href="#DejaVuSans-44"/>
       <use xlink:href="#DejaVuSans-69" x="77.001953"/>
       <use xlink:href="#DejaVuSans-73" x="104.785156"/>
       <use xlink:href="#DejaVuSans-67" x="156.884766"/>
       <use xlink:href="#DejaVuSans-75" x="220.361328"/>
       <use xlink:href="#DejaVuSans-73" x="283.740234"/>
       <use xlink:href="#DejaVuSans-74" x="335.839844"/>
       <use xlink:href="#DejaVuSans-65" x="375.048828"/>
       <use xlink:href="#DejaVuSans-64" x="436.572266"/>
      </g>
     </g>
    </g>
    <g id="xtick_2">
     <g id="line2d_2">
      <g>
       <use xlink:href="#md1e0834111" x="251.485714" y="630" style="stroke: #000000; stroke-width: 0.8"/>
      </g>
     </g>
     <g id="text_2">
      <!-- Fearful -->
      <g transform="translate(234.370871 644.598438)scale(0.1 -0.1)">
       <defs>
        <path id="DejaVuSans-46" d="M 628 4666 
L 3309 4666 
L 3309 4134 
L 1259 4134 
L 1259 2759 
L 3109 2759 
L 3109 2228 
L 1259 2228 
L 1259 0 
L 628 0 
L 628 4666 
z
" transform="scale(0.015625)"/>
        <path id="DejaVuSans-61" d="M 2194 1759 
Q 1497 1759 1228 1600 
Q 959 1441 959 1056 
Q 959 750 1161 570 
Q 1363 391 1709 391 
Q 2188 391 2477 730 
Q 2766 1069 2766 1631 
L 2766 1759 
L 2194 1759 
z
M 3341 1997 
L 3341 0 
L 2766 0 
L 2766 531 
Q 2569 213 2275 61 
Q 1981 -91 1556 -91 
Q 1019 -91 701 211 
Q 384 513 384 1019 
Q 384 1609 779 1909 
Q 1175 2209 1959 2209 
L 2766 2209 
L 2766 2266 
Q 2766 2663 2505 2880 
Q 2244 3097 1772 3097 
Q 1472 3097 1187 3025 
Q 903 2953 641 2809 
L 641 3341 
Q 956 3463 1253 3523 
Q 1550 3584 1831 3584 
Q 2591 3584 2966 3190 
Q 3341 2797 3341 1997 
z
" transform="scale(0.015625)"/>
        <path id="DejaVuSans-72" d="M 2631 2963 
Q 2534 3019 2420 3045 
Q 2306 3072 2169 3072 
Q 1681 3072 1420 2755 
Q 1159 2438 1159 1844 
L 1159 0 
L 581 0 
L 581 3500 
L 1159 3500 
L 1159 2956 
Q 1341 3275 1631 3429 
Q 1922 3584 2338 3584 
Q 2397 3584 2469 3576 
Q 2541 3569 2628 3553 
L 2631 2963 
z
" transform="scale(0.015625)"/>
        <path id="DejaVuSans-66" d="M 2375 4863 
L 2375 4384 
L 1825 4384 
Q 1516 4384 1395 4259 
Q 1275 4134 1275 3809 
L 1275 3500 
L 2222 3500 
L 2222 3053 
L 1275 3053 
L 1275 0 
L 697 0 
L 697 3053 
L 147 3053 
L 147 3500 
L 697 3500 
L 697 3744 
Q 697 4328 969 4595 
Q 1241 4863 1831 4863 
L 2375 4863 
z
" transform="scale(0.015625)"/>
        <path id="DejaVuSans-6c" d="M 603 4863 
L 1178 4863 
L 1178 0 
L 603 0 
L 603 4863 
z
" transform="scale(0.015625)"/>
       </defs>
       <use xlink:href="#DejaVuSans-46"/>
       <use xlink:href="#DejaVuSans-65" x="52.019531"/>
       <use xlink:href="#DejaVuSans-61" x="113.542969"/>
       <use xlink:href="#DejaVuSans-72" x="174.822266"/>
       <use xlink:href="#DejaVuSans-66" x="215.935547"/>
       <use xlink:href="#DejaVuSans-75" x="251.140625"/>
       <use xlink:href="#DejaVuSans-6c" x="314.519531"/>
      </g>
     </g>
    </g>
    <g id="xtick_3">
     <g id="line2d_3">
      <g>
       <use xlink:href="#md1e0834111" x="347.142857" y="630" style="stroke: #000000; stroke-width: 0.8"/>
      </g>
     </g>
     <g id="text_3">
      <!-- Neutral -->
      <g transform="translate(328.68817 644.598438)scale(0.1 -0.1)">
       <defs>
        <path id="DejaVuSans-4e" d="M 628 4666 
L 1478 4666 
L 3547 763 
L 3547 4666 
L 4159 4666 
L 4159 0 
L 3309 0 
L 1241 3903 
L 1241 0 
L 628 0 
L 628 4666 
z
" transform="scale(0.015625)"/>
       </defs>
       <use xlink:href="#DejaVuSans-4e"/>
       <use xlink:href="#DejaVuSans-65" x="74.804688"/>
       <use xlink:href="#DejaVuSans-75" x="136.328125"/>
       <use xlink:href="#DejaVuSans-74" x="199.707031"/>
       <use xlink:href="#DejaVuSans-72" x="238.916016"/>
       <use xlink:href="#DejaVuSans-61" x="280.029297"/>
       <use xlink:href="#DejaVuSans-6c" x="341.308594"/>
      </g>
     </g>
    </g>
    <g id="xtick_4">
     <g id="line2d_4">
      <g>
       <use xlink:href="#md1e0834111" x="442.8" y="630" style="stroke: #000000; stroke-width: 0.8"/>
      </g>
     </g>
     <g id="text_4">
      <!-- Happy -->
      <g transform="translate(426.667969 644.598438)scale(0.1 -0.1)">
       <defs>
        <path id="DejaVuSans-48" d="M 628 4666 
L 1259 4666 
L 1259 2753 
L 3553 2753 
L 3553 4666 
L 4184 4666 
L 4184 0 
L 3553 0 
L 3553 2222 
L 1259 2222 
L 1259 0 
L 628 0 
L 628 4666 
z
" transform="scale(0.015625)"/>
        <path id="DejaVuSans-70" d="M 1159 525 
L 1159 -1331 
L 581 -1331 
L 581 3500 
L 1159 3500 
L 1159 2969 
Q 1341 3281 1617 3432 
Q 1894 3584 2278 3584 
Q 2916 3584 3314 3078 
Q 3713 2572 3713 1747 
Q 3713 922 3314 415 
Q 2916 -91 2278 -91 
Q 1894 -91 1617 61 
Q 1341 213 1159 525 
z
M 3116 1747 
Q 3116 2381 2855 2742 
Q 2594 3103 2138 3103 
Q 1681 3103 1420 2742 
Q 1159 2381 1159 1747 
Q 1159 1113 1420 752 
Q 1681 391 2138 391 
Q 2594 391 2855 752 
Q 3116 1113 3116 1747 
z
" transform="scale(0.015625)"/>
        <path id="DejaVuSans-79" d="M 2059 -325 
Q 1816 -950 1584 -1140 
Q 1353 -1331 966 -1331 
L 506 -1331 
L 506 -850 
L 844 -850 
Q 1081 -850 1212 -737 
Q 1344 -625 1503 -206 
L 1606 56 
L 191 3500 
L 800 3500 
L 1894 763 
L 2988 3500 
L 3597 3500 
L 2059 -325 
z
" transform="scale(0.015625)"/>
       </defs>
       <use xlink:href="#DejaVuSans-48"/>
       <use xlink:href="#DejaVuSans-61" x="75.195312"/>
       <use xlink:href="#DejaVuSans-70" x="136.474609"/>
       <use xlink:href="#DejaVuSans-70" x="199.951172"/>
       <use xlink:href="#DejaVuSans-79" x="263.427734"/>
      </g>
     </g>
    </g>
    <g id="xtick_5">
     <g id="line2d_5">
      <g>
       <use xlink:href="#md1e0834111" x="538.457143" y="630" style="stroke: #000000; stroke-width: 0.8"/>
      </g>
     </g>
     <g id="text_5">
      <!-- Angry -->
      <g transform="translate(523.679018 644.598438)scale(0.1 -0.1)">
       <defs>
        <path id="DejaVuSans-41" d="M 2188 4044 
L 1331 1722 
L 3047 1722 
L 2188 4044 
z
M 1831 4666 
L 2547 4666 
L 4325 0 
L 3669 0 
L 3244 1197 
L 1141 1197 
L 716 0 
L 50 0 
L 1831 4666 
z
" transform="scale(0.015625)"/>
        <path id="DejaVuSans-6e" d="M 3513 2113 
L 3513 0 
L 2938 0 
L 2938 2094 
Q 2938 2591 2744 2837 
Q 2550 3084 2163 3084 
Q 1697 3084 1428 2787 
Q 1159 2491 1159 1978 
L 1159 0 
L 581 0 
L 581 3500 
L 1159 3500 
L 1159 2956 
Q 1366 3272 1645 3428 
Q 1925 3584 2291 3584 
Q 2894 3584 3203 3211 
Q 3513 2838 3513 2113 
z
" transform="scale(0.015625)"/>
       </defs>
       <use xlink:href="#DejaVuSans-41"/>
       <use xlink:href="#DejaVuSans-6e" x="68.408203"/>
       <use xlink:href="#DejaVuSans-67" x="131.787109"/>
       <use xlink:href="#DejaVuSans-72" x="195.263672"/>
       <use xlink:href="#DejaVuSans-79" x="236.376953"/>
      </g>
     </g>
    </g>
    <g id="xtick_6">
     <g id="line2d_6">
      <g>
       <use xlink:href="#md1e0834111" x="634.114286" y="630" style="stroke: #000000; stroke-width: 0.8"/>
      </g>
     </g>
     <g id="text_6">
      <!-- Sad -->
      <g transform="translate(624.701786 644.598438)scale(0.1 -0.1)">
       <defs>
        <path id="DejaVuSans-53" d="M 3425 4513 
L 3425 3897 
Q 3066 4069 2747 4153 
Q 2428 4238 2131 4238 
Q 1616 4238 1336 4038 
Q 1056 3838 1056 3469 
Q 1056 3159 1242 3001 
Q 1428 2844 1947 2747 
L 2328 2669 
Q 3034 2534 3370 2195 
Q 3706 1856 3706 1288 
Q 3706 609 3251 259 
Q 2797 -91 1919 -91 
Q 1588 -91 1214 -16 
Q 841 59 441 206 
L 441 856 
Q 825 641 1194 531 
Q 1563 422 1919 422 
Q 2459 422 2753 634 
Q 3047 847 3047 1241 
Q 3047 1584 2836 1778 
Q 2625 1972 2144 2069 
L 1759 2144 
Q 1053 2284 737 2584 
Q 422 2884 422 3419 
Q 422 4038 858 4394 
Q 1294 4750 2059 4750 
Q 2388 4750 2728 4690 
Q 3069 4631 3425 4513 
z
" transform="scale(0.015625)"/>
       </defs>
       <use xlink:href="#DejaVuSans-53"/>
       <use xlink:href="#DejaVuSans-61" x="63.476562"/>
       <use xlink:href="#DejaVuSans-64" x="124.755859"/>
      </g>
     </g>
    </g>
    <g id="xtick_7">
     <g id="line2d_7">
      <g>
       <use xlink:href="#md1e0834111" x="729.771429" y="630" style="stroke: #000000; stroke-width: 0.8"/>
      </g>
     </g>
     <g id="text_7">
      <!-- Suprised -->
      <g transform="translate(707.954241 644.598438)scale(0.1 -0.1)">
       <use xlink:href="#DejaVuSans-53"/>
       <use xlink:href="#DejaVuSans-75" x="63.476562"/>
       <use xlink:href="#DejaVuSans-70" x="126.855469"/>
       <use xlink:href="#DejaVuSans-72" x="190.332031"/>
       <use xlink:href="#DejaVuSans-69" x="231.445312"/>
       <use xlink:href="#DejaVuSans-73" x="259.228516"/>
       <use xlink:href="#DejaVuSans-65" x="311.328125"/>
       <use xlink:href="#DejaVuSans-64" x="372.851562"/>
      </g>
     </g>
    </g>
    <g id="text_8">
     <!-- emotion -->
     <g transform="translate(422.216406 658.276562)scale(0.1 -0.1)">
      <defs>
       <path id="DejaVuSans-6d" d="M 3328 2828 
Q 3544 3216 3844 3400 
Q 4144 3584 4550 3584 
Q 5097 3584 5394 3201 
Q 5691 2819 5691 2113 
L 5691 0 
L 5113 0 
L 5113 2094 
Q 5113 2597 4934 2840 
Q 4756 3084 4391 3084 
Q 3944 3084 3684 2787 
Q 3425 2491 3425 1978 
L 3425 0 
L 2847 0 
L 2847 2094 
Q 2847 2600 2669 2842 
Q 2491 3084 2119 3084 
Q 1678 3084 1418 2786 
Q 1159 2488 1159 1978 
L 1159 0 
L 581 0 
L 581 3500 
L 1159 3500 
L 1159 2956 
Q 1356 3278 1631 3431 
Q 1906 3584 2284 3584 
Q 2666 3584 2933 3390 
Q 3200 3197 3328 2828 
z
" transform="scale(0.015625)"/>
       <path id="DejaVuSans-6f" d="M 1959 3097 
Q 1497 3097 1228 2736 
Q 959 2375 959 1747 
Q 959 1119 1226 758 
Q 1494 397 1959 397 
Q 2419 397 2687 759 
Q 2956 1122 2956 1747 
Q 2956 2369 2687 2733 
Q 2419 3097 1959 3097 
z
M 1959 3584 
Q 2709 3584 3137 3096 
Q 3566 2609 3566 1747 
Q 3566 888 3137 398 
Q 2709 -91 1959 -91 
Q 1206 -91 779 398 
Q 353 888 353 1747 
Q 353 2609 779 3096 
Q 1206 3584 1959 3584 
z
" transform="scale(0.015625)"/>
      </defs>
      <use xlink:href="#DejaVuSans-65"/>
      <use xlink:href="#DejaVuSans-6d" x="61.523438"/>
      <use xlink:href="#DejaVuSans-6f" x="158.935547"/>
      <use xlink:href="#DejaVuSans-74" x="220.117188"/>
      <use xlink:href="#DejaVuSans-69" x="259.326172"/>
      <use xlink:href="#DejaVuSans-6f" x="287.109375"/>
      <use xlink:href="#DejaVuSans-6e" x="348.291016"/>
     </g>
    </g>
   </g>
   <g id="matplotlib.axis_2">
    <g id="ytick_1">
     <g id="line2d_8">
      <path d="M 108 595.653553 
L 777.6 595.653553 
" clip-path="url(#pe60ca776f5)" style="fill: none; stroke: #b0b0b0; stroke-width: 0.8; stroke-linecap: square"/>
     </g>
     <g id="line2d_9">
      <defs>
       <path id="m780efbe24c" d="M 0 0 
L -3.5 0 
" style="stroke: #000000; stroke-width: 0.8"/>
      </defs>
      <g>
       <use xlink:href="#m780efbe24c" x="108" y="595.653553" style="stroke: #000000; stroke-width: 0.8"/>
      </g>
     </g>
     <g id="text_9">
      <!-- 1 -->
      <g transform="translate(94.6375 599.452771)scale(0.1 -0.1)">
       <defs>
        <path id="DejaVuSans-31" d="M 794 531 
L 1825 531 
L 1825 4091 
L 703 3866 
L 703 4441 
L 1819 4666 
L 2450 4666 
L 2450 531 
L 3481 531 
L 3481 0 
L 794 0 
L 794 531 
z
" transform="scale(0.015625)"/>
       </defs>
       <use xlink:href="#DejaVuSans-31"/>
      </g>
     </g>
    </g>
    <g id="ytick_2">
     <g id="line2d_10">
      <path d="M 108 521.671624 
L 777.6 521.671624 
" clip-path="url(#pe60ca776f5)" style="fill: none; stroke: #b0b0b0; stroke-width: 0.8; stroke-linecap: square"/>
     </g>
     <g id="line2d_11">
      <g>
       <use xlink:href="#m780efbe24c" x="108" y="521.671624" style="stroke: #000000; stroke-width: 0.8"/>
      </g>
     </g>
     <g id="text_10">
      <!-- 2 -->
      <g transform="translate(94.6375 525.470843)scale(0.1 -0.1)">
       <defs>
        <path id="DejaVuSans-32" d="M 1228 531 
L 3431 531 
L 3431 0 
L 469 0 
L 469 531 
Q 828 903 1448 1529 
Q 2069 2156 2228 2338 
Q 2531 2678 2651 2914 
Q 2772 3150 2772 3378 
Q 2772 3750 2511 3984 
Q 2250 4219 1831 4219 
Q 1534 4219 1204 4116 
Q 875 4013 500 3803 
L 500 4441 
Q 881 4594 1212 4672 
Q 1544 4750 1819 4750 
Q 2544 4750 2975 4387 
Q 3406 4025 3406 3419 
Q 3406 3131 3298 2873 
Q 3191 2616 2906 2266 
Q 2828 2175 2409 1742 
Q 1991 1309 1228 531 
z
" transform="scale(0.015625)"/>
       </defs>
       <use xlink:href="#DejaVuSans-32"/>
      </g>
     </g>
    </g>
    <g id="ytick_3">
     <g id="line2d_12">
      <path d="M 108 447.689696 
L 777.6 447.689696 
" clip-path="url(#pe60ca776f5)" style="fill: none; stroke: #b0b0b0; stroke-width: 0.8; stroke-linecap: square"/>
     </g>
     <g id="line2d_13">
      <g>
       <use xlink:href="#m780efbe24c" x="108" y="447.689696" style="stroke: #000000; stroke-width: 0.8"/>
      </g>
     </g>
     <g id="text_11">
      <!-- 3 -->
      <g transform="translate(94.6375 451.488915)scale(0.1 -0.1)">
       <defs>
        <path id="DejaVuSans-33" d="M 2597 2516 
Q 3050 2419 3304 2112 
Q 3559 1806 3559 1356 
Q 3559 666 3084 287 
Q 2609 -91 1734 -91 
Q 1441 -91 1130 -33 
Q 819 25 488 141 
L 488 750 
Q 750 597 1062 519 
Q 1375 441 1716 441 
Q 2309 441 2620 675 
Q 2931 909 2931 1356 
Q 2931 1769 2642 2001 
Q 2353 2234 1838 2234 
L 1294 2234 
L 1294 2753 
L 1863 2753 
Q 2328 2753 2575 2939 
Q 2822 3125 2822 3475 
Q 2822 3834 2567 4026 
Q 2313 4219 1838 4219 
Q 1578 4219 1281 4162 
Q 984 4106 628 3988 
L 628 4550 
Q 988 4650 1302 4700 
Q 1616 4750 1894 4750 
Q 2613 4750 3031 4423 
Q 3450 4097 3450 3541 
Q 3450 3153 3228 2886 
Q 3006 2619 2597 2516 
z
" transform="scale(0.015625)"/>
       </defs>
       <use xlink:href="#DejaVuSans-33"/>
      </g>
     </g>
    </g>
    <g id="ytick_4">
     <g id="line2d_14">
      <path d="M 108 373.707768 
L 777.6 373.707768 
" clip-path="url(#pe60ca776f5)" style="fill: none; stroke: #b0b0b0; stroke-width: 0.8; stroke-linecap: square"/>
     </g>
     <g id="line2d_15">
      <g>
       <use xlink:href="#m780efbe24c" x="108" y="373.707768" style="stroke: #000000; stroke-width: 0.8"/>
      </g>
     </g>
     <g id="text_12">
      <!-- 4 -->
      <g transform="translate(94.6375 377.506986)scale(0.1 -0.1)">
       <defs>
        <path id="DejaVuSans-34" d="M 2419 4116 
L 825 1625 
L 2419 1625 
L 2419 4116 
z
M 2253 4666 
L 3047 4666 
L 3047 1625 
L 3713 1625 
L 3713 1100 
L 3047 1100 
L 3047 0 
L 2419 0 
L 2419 1100 
L 313 1100 
L 313 1709 
L 2253 4666 
z
" transform="scale(0.015625)"/>
       </defs>
       <use xlink:href="#DejaVuSans-34"/>
      </g>
     </g>
    </g>
    <g id="ytick_5">
     <g id="line2d_16">
      <path d="M 108 299.725839 
L 777.6 299.725839 
" clip-path="url(#pe60ca776f5)" style="fill: none; stroke: #b0b0b0; stroke-width: 0.8; stroke-linecap: square"/>
     </g>
     <g id="line2d_17">
      <g>
       <use xlink:href="#m780efbe24c" x="108" y="299.725839" style="stroke: #000000; stroke-width: 0.8"/>
      </g>
     </g>
     <g id="text_13">
      <!-- 5 -->
      <g transform="translate(94.6375 303.525058)scale(0.1 -0.1)">
       <defs>
        <path id="DejaVuSans-35" d="M 691 4666 
L 3169 4666 
L 3169 4134 
L 1269 4134 
L 1269 2991 
Q 1406 3038 1543 3061 
Q 1681 3084 1819 3084 
Q 2600 3084 3056 2656 
Q 3513 2228 3513 1497 
Q 3513 744 3044 326 
Q 2575 -91 1722 -91 
Q 1428 -91 1123 -41 
Q 819 9 494 109 
L 494 744 
Q 775 591 1075 516 
Q 1375 441 1709 441 
Q 2250 441 2565 725 
Q 2881 1009 2881 1497 
Q 2881 1984 2565 2268 
Q 2250 2553 1709 2553 
Q 1456 2553 1204 2497 
Q 953 2441 691 2322 
L 691 4666 
z
" transform="scale(0.015625)"/>
       </defs>
       <use xlink:href="#DejaVuSans-35"/>
      </g>
     </g>
    </g>
    <g id="ytick_6">
     <g id="line2d_18">
      <path d="M 108 225.743911 
L 777.6 225.743911 
" clip-path="url(#pe60ca776f5)" style="fill: none; stroke: #b0b0b0; stroke-width: 0.8; stroke-linecap: square"/>
     </g>
     <g id="line2d_19">
      <g>
       <use xlink:href="#m780efbe24c" x="108" y="225.743911" style="stroke: #000000; stroke-width: 0.8"/>
      </g>
     </g>
     <g id="text_14">
      <!-- 6 -->
      <g transform="translate(94.6375 229.54313)scale(0.1 -0.1)">
       <defs>
        <path id="DejaVuSans-36" d="M 2113 2584 
Q 1688 2584 1439 2293 
Q 1191 2003 1191 1497 
Q 1191 994 1439 701 
Q 1688 409 2113 409 
Q 2538 409 2786 701 
Q 3034 994 3034 1497 
Q 3034 2003 2786 2293 
Q 2538 2584 2113 2584 
z
M 3366 4563 
L 3366 3988 
Q 3128 4100 2886 4159 
Q 2644 4219 2406 4219 
Q 1781 4219 1451 3797 
Q 1122 3375 1075 2522 
Q 1259 2794 1537 2939 
Q 1816 3084 2150 3084 
Q 2853 3084 3261 2657 
Q 3669 2231 3669 1497 
Q 3669 778 3244 343 
Q 2819 -91 2113 -91 
Q 1303 -91 875 529 
Q 447 1150 447 2328 
Q 447 3434 972 4092 
Q 1497 4750 2381 4750 
Q 2619 4750 2861 4703 
Q 3103 4656 3366 4563 
z
" transform="scale(0.015625)"/>
       </defs>
       <use xlink:href="#DejaVuSans-36"/>
      </g>
     </g>
    </g>
    <g id="ytick_7">
     <g id="line2d_20">
      <path d="M 108 151.761983 
L 777.6 151.761983 
" clip-path="url(#pe60ca776f5)" style="fill: none; stroke: #b0b0b0; stroke-width: 0.8; stroke-linecap: square"/>
     </g>
     <g id="line2d_21">
      <g>
       <use xlink:href="#m780efbe24c" x="108" y="151.761983" style="stroke: #000000; stroke-width: 0.8"/>
      </g>
     </g>
     <g id="text_15">
      <!-- 7 -->
      <g transform="translate(94.6375 155.561201)scale(0.1 -0.1)">
       <defs>
        <path id="DejaVuSans-37" d="M 525 4666 
L 3525 4666 
L 3525 4397 
L 1831 0 
L 1172 0 
L 2766 4134 
L 525 4134 
L 525 4666 
z
" transform="scale(0.015625)"/>
       </defs>
       <use xlink:href="#DejaVuSans-37"/>
      </g>
     </g>
    </g>
    <g id="text_16">
     <!-- Time (s) -->
     <g transform="translate(88.557812 378.528906)rotate(-90)scale(0.1 -0.1)">
      <defs>
       <path id="DejaVuSans-54" d="M -19 4666 
L 3928 4666 
L 3928 4134 
L 2272 4134 
L 2272 0 
L 1638 0 
L 1638 4134 
L -19 4134 
L -19 4666 
z
" transform="scale(0.015625)"/>
       <path id="DejaVuSans-20" transform="scale(0.015625)"/>
       <path id="DejaVuSans-28" d="M 1984 4856 
Q 1566 4138 1362 3434 
Q 1159 2731 1159 2009 
Q 1159 1288 1364 580 
Q 1569 -128 1984 -844 
L 1484 -844 
Q 1016 -109 783 600 
Q 550 1309 550 2009 
Q 550 2706 781 3412 
Q 1013 4119 1484 4856 
L 1984 4856 
z
" transform="scale(0.015625)"/>
       <path id="DejaVuSans-29" d="M 513 4856 
L 1013 4856 
Q 1481 4119 1714 3412 
Q 1947 2706 1947 2009 
Q 1947 1309 1714 600 
Q 1481 -109 1013 -844 
L 513 -844 
Q 928 -128 1133 580 
Q 1338 1288 1338 2009 
Q 1338 2731 1133 3434 
Q 928 4138 513 4856 
z
" transform="scale(0.015625)"/>
      </defs>
      <use xlink:href="#DejaVuSans-54"/>
      <use xlink:href="#DejaVuSans-69" x="57.958984"/>
      <use xlink:href="#DejaVuSans-6d" x="85.742188"/>
      <use xlink:href="#DejaVuSans-65" x="183.154297"/>
      <use xlink:href="#DejaVuSans-20" x="244.677734"/>
      <use xlink:href="#DejaVuSans-28" x="276.464844"/>
      <use xlink:href="#DejaVuSans-73" x="315.478516"/>
      <use xlink:href="#DejaVuSans-29" x="367.578125"/>
     </g>
    </g>
   </g>
   <g id="line2d_22">
    <path d="M 155.828571 575.826396 
L 155.828571 356.127812 
" clip-path="url(#pe60ca776f5)" style="fill: none; stroke: #343434; stroke-width: 1.5; stroke-linecap: square"/>
   </g>
   <g id="line2d_23">
    <path d="M 155.828571 493.410528 
L 155.828571 437.591163 
" clip-path="url(#pe60ca776f5)" style="fill: none; stroke: #343434; stroke-width: 4.5; stroke-linecap: square"/>
   </g>
   <g id="line2d_24">
    <path d="M 251.485714 576.852895 
L 251.485714 311.692416 
" clip-path="url(#pe60ca776f5)" style="fill: none; stroke: #343434; stroke-width: 1.5; stroke-linecap: square"/>
   </g>
   <g id="line2d_25">
    <path d="M 251.485714 526.452707 
L 251.485714 440.051062 
" clip-path="url(#pe60ca776f5)" style="fill: none; stroke: #343434; stroke-width: 4.5; stroke-linecap: square"/>
   </g>
   <g id="line2d_26">
    <path d="M 347.142857 570.888102 
L 347.142857 375.871739 
" clip-path="url(#pe60ca776f5)" style="fill: none; stroke: #343434; stroke-width: 1.5; stroke-linecap: square"/>
   </g>
   <g id="line2d_27">
    <path d="M 347.142857 516.423531 
L 347.142857 459.804237 
" clip-path="url(#pe60ca776f5)" style="fill: none; stroke: #343434; stroke-width: 4.5; stroke-linecap: square"/>
   </g>
   <g id="line2d_28">
    <path d="M 442.8 570.888102 
L 442.8 319.099857 
" clip-path="url(#pe60ca776f5)" style="fill: none; stroke: #343434; stroke-width: 1.5; stroke-linecap: square"/>
   </g>
   <g id="line2d_29">
    <path d="M 442.8 521.514413 
L 442.8 440.051062 
" clip-path="url(#pe60ca776f5)" style="fill: none; stroke: #343434; stroke-width: 4.5; stroke-linecap: square"/>
   </g>
   <g id="line2d_30">
    <path d="M 538.457143 571.489205 
L 538.457143 314.161563 
" clip-path="url(#pe60ca776f5)" style="fill: none; stroke: #343434; stroke-width: 1.5; stroke-linecap: square"/>
   </g>
   <g id="line2d_31">
    <path d="M 538.457143 512.238929 
L 538.457143 432.652869 
" clip-path="url(#pe60ca776f5)" style="fill: none; stroke: #343434; stroke-width: 4.5; stroke-linecap: square"/>
   </g>
   <g id="line2d_32">
    <path d="M 634.114286 561.011515 
L 634.114286 301.815829 
" clip-path="url(#pe60ca776f5)" style="fill: none; stroke: #343434; stroke-width: 1.5; stroke-linecap: square"/>
   </g>
   <g id="line2d_33">
    <path d="M 634.114286 498.804273 
L 634.114286 419.710655 
" clip-path="url(#pe60ca776f5)" style="fill: none; stroke: #343434; stroke-width: 4.5; stroke-linecap: square"/>
   </g>
   <g id="line2d_34">
    <path d="M 729.771429 547.556052 
L 729.771429 326.49805 
" clip-path="url(#pe60ca776f5)" style="fill: none; stroke: #343434; stroke-width: 1.5; stroke-linecap: square"/>
   </g>
   <g id="line2d_35">
    <path d="M 729.771429 527.019131 
L 729.771429 427.097289 
" clip-path="url(#pe60ca776f5)" style="fill: none; stroke: #343434; stroke-width: 4.5; stroke-linecap: square"/>
   </g>
   <g id="patch_3">
    <path d="M 108 630 
L 108 86.4 
" style="fill: none; stroke: #000000; stroke-width: 0.8; stroke-linejoin: miter; stroke-linecap: square"/>
   </g>
   <g id="patch_4">
    <path d="M 777.6 630 
L 777.6 86.4 
" style="fill: none; stroke: #000000; stroke-width: 0.8; stroke-linejoin: miter; stroke-linecap: square"/>
   </g>
   <g id="patch_5">
    <path d="M 108 630 
L 777.6 630 
" style="fill: none; stroke: #000000; stroke-width: 0.8; stroke-linejoin: miter; stroke-linecap: square"/>
   </g>
   <g id="patch_6">
    <path d="M 108 86.4 
L 777.6 86.4 
" style="fill: none; stroke: #000000; stroke-width: 0.8; stroke-linejoin: miter; stroke-linecap: square"/>
   </g>
   <g id="PathCollection_1">
    <defs>
     <path id="m0facc9fff5" d="M 0 1.5 
C 0.397805 1.5 0.77937 1.341951 1.06066 1.06066 
C 1.341951 0.77937 1.5 0.397805 1.5 0 
C 1.5 -0.397805 1.341951 -0.77937 1.06066 -1.06066 
C 0.77937 -1.341951 0.397805 -1.5 0 -1.5 
C -0.397805 -1.5 -0.77937 -1.341951 -1.06066 -1.06066 
C -1.341951 -0.77937 -1.5 -0.397805 -1.5 0 
C -1.5 0.397805 -1.341951 0.77937 -1.06066 1.06066 
C -0.77937 1.341951 -0.397805 1.5 0 1.5 
z
" style="stroke: #343434"/>
    </defs>
    <g clip-path="url(#pe60ca776f5)">
     <use xlink:href="#m0facc9fff5" x="155.828571" y="472.149971" style="fill: #ffffff; stroke: #343434"/>
    </g>
   </g>
   <g id="PathCollection_2">
    <g clip-path="url(#pe60ca776f5)">
     <use xlink:href="#m0facc9fff5" x="251.485714" y="486.955605" style="fill: #ffffff; stroke: #343434"/>
    </g>
   </g>
   <g id="PathCollection_3">
    <g clip-path="url(#pe60ca776f5)">
     <use xlink:href="#m0facc9fff5" x="347.142857" y="496.832192" style="fill: #ffffff; stroke: #343434"/>
    </g>
   </g>
   <g id="PathCollection_4">
    <g clip-path="url(#pe60ca776f5)">
     <use xlink:href="#m0facc9fff5" x="442.8" y="496.832192" style="fill: #ffffff; stroke: #343434"/>
    </g>
   </g>
   <g id="PathCollection_5">
    <g clip-path="url(#pe60ca776f5)">
     <use xlink:href="#m0facc9fff5" x="538.457143" y="479.548164" style="fill: #ffffff; stroke: #343434"/>
    </g>
   </g>
   <g id="PathCollection_6">
    <g clip-path="url(#pe60ca776f5)">
     <use xlink:href="#m0facc9fff5" x="634.114286" y="476.718355" style="fill: #ffffff; stroke: #343434"/>
    </g>
   </g>
   <g id="PathCollection_7">
    <g clip-path="url(#pe60ca776f5)">
     <use xlink:href="#m0facc9fff5" x="729.771429" y="512.215809" style="fill: #ffffff; stroke: #343434"/>
    </g>
   </g>
   <g id="text_17">
    <!-- Time length distribution per class -->
    <g transform="translate(342.314063 80.4)scale(0.12 -0.12)">
     <defs>
      <path id="DejaVuSans-68" d="M 3513 2113 
L 3513 0 
L 2938 0 
L 2938 2094 
Q 2938 2591 2744 2837 
Q 2550 3084 2163 3084 
Q 1697 3084 1428 2787 
Q 1159 2491 1159 1978 
L 1159 0 
L 581 0 
L 581 4863 
L 1159 4863 
L 1159 2956 
Q 1366 3272 1645 3428 
Q 1925 3584 2291 3584 
Q 2894 3584 3203 3211 
Q 3513 2838 3513 2113 
z
" transform="scale(0.015625)"/>
      <path id="DejaVuSans-62" d="M 3116 1747 
Q 3116 2381 2855 2742 
Q 2594 3103 2138 3103 
Q 1681 3103 1420 2742 
Q 1159 2381 1159 1747 
Q 1159 1113 1420 752 
Q 1681 391 2138 391 
Q 2594 391 2855 752 
Q 3116 1113 3116 1747 
z
M 1159 2969 
Q 1341 3281 1617 3432 
Q 1894 3584 2278 3584 
Q 2916 3584 3314 3078 
Q 3713 2572 3713 1747 
Q 3713 922 3314 415 
Q 2916 -91 2278 -91 
Q 1894 -91 1617 61 
Q 1341 213 1159 525 
L 1159 0 
L 581 0 
L 581 4863 
L 1159 4863 
L 1159 2969 
z
" transform="scale(0.015625)"/>
      <path id="DejaVuSans-63" d="M 3122 3366 
L 3122 2828 
Q 2878 2963 2633 3030 
Q 2388 3097 2138 3097 
Q 1578 3097 1268 2742 
Q 959 2388 959 1747 
Q 959 1106 1268 751 
Q 1578 397 2138 397 
Q 2388 397 2633 464 
Q 2878 531 3122 666 
L 3122 134 
Q 2881 22 2623 -34 
Q 2366 -91 2075 -91 
Q 1284 -91 818 406 
Q 353 903 353 1747 
Q 353 2603 823 3093 
Q 1294 3584 2113 3584 
Q 2378 3584 2631 3529 
Q 2884 3475 3122 3366 
z
" transform="scale(0.015625)"/>
     </defs>
     <use xlink:href="#DejaVuSans-54"/>
     <use xlink:href="#DejaVuSans-69" x="57.958984"/>
     <use xlink:href="#DejaVuSans-6d" x="85.742188"/>
     <use xlink:href="#DejaVuSans-65" x="183.154297"/>
     <use xlink:href="#DejaVuSans-20" x="244.677734"/>
     <use xlink:href="#DejaVuSans-6c" x="276.464844"/>
     <use xlink:href="#DejaVuSans-65" x="304.248047"/>
     <use xlink:href="#DejaVuSans-6e" x="365.771484"/>
     <use xlink:href="#DejaVuSans-67" x="429.150391"/>
     <use xlink:href="#DejaVuSans-74" x="492.626953"/>
     <use xlink:href="#DejaVuSans-68" x="531.835938"/>
     <use xlink:href="#DejaVuSans-20" x="595.214844"/>
     <use xlink:href="#DejaVuSans-64" x="627.001953"/>
     <use xlink:href="#DejaVuSans-69" x="690.478516"/>
     <use xlink:href="#DejaVuSans-73" x="718.261719"/>
     <use xlink:href="#DejaVuSans-74" x="770.361328"/>
     <use xlink:href="#DejaVuSans-72" x="809.570312"/>
     <use xlink:href="#DejaVuSans-69" x="850.683594"/>
     <use xlink:href="#DejaVuSans-62" x="878.466797"/>
     <use xlink:href="#DejaVuSans-75" x="941.943359"/>
     <use xlink:href="#DejaVuSans-74" x="1005.322266"/>
     <use xlink:href="#DejaVuSans-69" x="1044.53125"/>
     <use xlink:href="#DejaVuSans-6f" x="1072.314453"/>
     <use xlink:href="#DejaVuSans-6e" x="1133.496094"/>
     <use xlink:href="#DejaVuSans-20" x="1196.875"/>
     <use xlink:href="#DejaVuSans-70" x="1228.662109"/>
     <use xlink:href="#DejaVuSans-65" x="1292.138672"/>
     <use xlink:href="#DejaVuSans-72" x="1353.662109"/>
     <use xlink:href="#DejaVuSans-20" x="1394.775391"/>
     <use xlink:href="#DejaVuSans-63" x="1426.5625"/>
     <use xlink:href="#DejaVuSans-6c" x="1481.542969"/>
     <use xlink:href="#DejaVuSans-61" x="1509.326172"/>
     <use xlink:href="#DejaVuSans-73" x="1570.605469"/>
     <use xlink:href="#DejaVuSans-73" x="1622.705078"/>
    </g>
   </g>
  </g>
 </g>
 <defs>
  <clipPath id="pe60ca776f5">
   <rect x="108" y="86.4" width="669.6" height="543.6"/>
  </clipPath>
 </defs>
</svg>
